<svg xmlns="http://www.w3.org/2000/svg" width="124" height="65" viewBox="0 0 124 65" fill="none"><g clip-path="url(#clip0_2129_40)"><path d="M16.8003 10.2C16.8003 7.4 18.8003 6.4 21.2003 6.1L23.5003 5.9C24.6003 5.8 25.1003 5.6 25.1003 4.9C25.1003 4.3 24.6003 3.9 23.2003 3.9C21.4003 3.9 19.9003 4.2 17.5003 5.2L18.0003 1.1C19.3003 0.4 21.5003 0 23.4003 0C27.9003 0 29.9003 1.7 29.9003 5.4V14H25.5003V12.4C24.8003 13.8 23.2003 14.2 21.9003 14.2C18.8003 14.3 16.8003 12.6 16.8003 10.2ZM25.3003 8.7V7.9C25.0003 8.3 24.3003 8.4 23.6003 8.5L22.6003 8.7C21.7003 8.8 21.4003 9.2 21.4003 9.8C21.4003 10.4 21.9003 10.9 23.0003 10.9C24.4003 10.9 25.3003 10.1 25.3003 8.7Z" fill="#FD9901"></path><path d="M32.1004 18.8L31.7004 14.7C33.4004 15.4 35.2004 15.7 36.6004 15.7C39.4004 15.7 40.5004 15 40.5004 12.5V12.2C39.8004 13.1 38.4004 13.7 37.0004 13.7C33.1004 13.7 30.9004 10.9 30.9004 6.8C30.9004 2.7 33.2004 0 37.1004 0C38.6004 0 40.3004 0.7 40.9004 1.9V0.3H45.3004V12.8C45.3004 17.6 42.4004 19.7 37.4004 19.7C35.4004 19.7 33.6004 19.4 32.1004 18.8ZM40.6004 6.9C40.6004 5.1 39.7004 3.9 38.3004 3.9C36.9004 3.9 35.9004 5.1 35.9004 6.9C35.9004 8.7 36.8004 9.9 38.3004 9.9C39.8004 9.9 40.6004 8.7 40.6004 6.9Z" fill="#FD9901"></path><path d="M51.2004 8.4001C51.6004 10.0001 52.7004 10.5001 55.0004 10.5001C56.4004 10.5001 58.2004 10.1001 59.9004 9.5001L59.5004 13.4001C58.1004 14.0001 56.2004 14.3001 54.3004 14.3001C49.3004 14.3001 46.4004 11.7001 46.4004 7.2001C46.4004 2.9001 49.1004 0.100098 53.6004 0.100098C58.1004 0.100098 60.8004 2.9001 60.8004 7.2001C60.8004 7.6001 60.8004 8.0001 60.7004 8.4001H51.2004ZM56.0004 5.9001C55.7004 4.5001 54.9004 3.8001 53.6004 3.8001C52.3004 3.8001 51.5004 4.5001 51.2004 5.9001H56.0004Z" fill="#FD9901"></path><path d="M74.6003 5.3001V14.0001H69.9003V6.0001C69.9003 4.7001 69.3003 4.1001 68.2003 4.1001C67.1003 4.1001 66.5003 4.7001 66.5003 6.0001V14.0001H61.8003V0.300102H66.2003V1.9001C66.7003 0.800102 68.2003 0.100102 69.8003 0.100102C72.9003 0.000101801 74.6003 2.1001 74.6003 5.3001Z" fill="#FD9901"></path><path d="M75.7002 7.1C75.7002 2.8 78.8002 0 83.0002 0C84.6002 0 86.1002 0.3 87.3002 0.8L87.7002 5.1C86.1002 4.2 85.1002 4 83.8002 4C82.0002 4 80.6002 5.1 80.6002 7.2C80.6002 9.3 82.0002 10.4 83.8002 10.4C85.1002 10.4 86.1002 10.2 87.7002 9.3L87.3002 13.6C86.1002 14.1 84.6002 14.4 83.0002 14.4C78.8002 14.3 75.7002 11.4 75.7002 7.1Z" fill="#FD9901"></path><path d="M98.6005 0.300049H103.5L95.3005 19.4H90.4005L93.3005 13.1L88.0005 0.300049H92.9005L95.6005 7.60005L98.6005 0.300049Z" fill="#FD9901"></path><path d="M25.5 32.5999C26.1 31.1999 26.9 30.0999 28.3 29.5999C29.7 29.0999 31 28.9999 32.4 29.5999C33.8 30.1999 34.5 31.2999 35.2 32.6999C35.3 32.4999 35.4 32.2999 35.4 32.1999C36.6 29.6999 39.1 28.9999 41 29.2999C42.1 29.3999 43 29.7999 43.8 30.4999C44.7 31.2999 45.2 32.2999 45.4 33.4999C45.5 33.9999 45.5 34.4999 45.5 34.9999C45.5 39.6999 45.5 44.2999 45.5 48.9999C45.5 49.6999 45.3 49.8999 44.6 49.8999C43.5 49.8999 42.5 49.8999 41.4 49.8999C40.7 49.8999 40.5 49.6999 40.5 48.9999C40.5 45.1999 40.5 41.4999 40.5 37.6999C40.5 37.0999 40.5 36.4999 40.4 35.8999C40.2 34.1999 38.6 33.3999 37.1 34.1999C36.4 34.5999 36 35.1999 35.9 35.9999C35.8 36.7999 35.7 37.5999 35.7 38.3999C35.7 41.7999 35.7 45.2999 35.7 48.6999C35.7 48.7999 35.7 48.9999 35.7 49.1999C35.7 49.5999 35.4 49.8999 35 49.8999C33.8 49.8999 32.6 49.8999 31.4 49.8999C31 49.8999 30.7 49.5999 30.7 49.1999C30.7 49.0999 30.7 48.8999 30.7 48.7999C30.7 45.1999 30.7 41.4999 30.7 37.8999C30.7 37.2999 30.6 36.6999 30.6 36.0999C30.6 35.9999 30.5 35.7999 30.5 35.6999C30 34.5999 29.3 33.9999 28.4 33.9999C27.2 33.8999 26.4 34.3999 26.1 35.3999C25.9 35.9999 25.8 36.4999 25.7 37.0999C25.6 37.6999 25.6 38.1999 25.6 38.7999C25.6 42.0999 25.6 45.3999 25.6 48.6999C25.6 48.7999 25.6 48.9999 25.6 49.1999C25.6 49.6999 25.3 49.9999 24.8 49.9999C23.7 49.9999 22.5 49.9999 21.3 49.9999C20.8 49.9999 20.5 49.6999 20.5 49.1999C20.5 49.0999 20.5 48.8999 20.5 48.7999C20.5 42.7999 20.5 36.8999 20.5 30.8999C20.5 30.7999 20.5 30.6999 20.5 30.5999C20.5 29.8999 20.7 29.6999 21.4 29.6999C22.3 29.6999 23.2 29.6999 24 29.6999C24.1 29.6999 24.3 29.6999 24.5 29.6999C25 29.6999 25.3 29.9999 25.3 30.4999C25.3 31.1999 25.3 31.8999 25.3 32.6999C25.4 32.5999 25.5 32.5999 25.5 32.5999Z" fill="white"></path><path d="M11.8001 47.4999C11.6001 47.6999 11.4001 47.7999 11.3001 47.9999C9.7001 49.6999 7.6001 50.2999 5.3001 50.1999C4.9001 50.1999 4.4001 50.0999 4.0001 49.9999C2.1001 49.4999 0.900098 48.2999 0.400098 46.3999C9.76622e-05 45.0999 9.76622e-05 43.6999 0.400098 42.3999C1.0001 40.3999 2.3001 39.0999 4.2001 38.2999C5.2001 37.8999 6.3001 37.5999 7.5001 37.4999C8.5001 37.3999 9.5001 37.2999 10.4001 37.0999C10.6001 37.0999 10.8001 36.9999 11.0001 36.9999C11.0001 36.0999 11.1001 35.2999 10.9001 34.4999C10.6001 33.3999 9.6001 32.7999 8.4001 32.8999C6.9001 32.9999 6.0001 33.6999 5.6001 35.0999C5.4001 35.6999 5.2001 35.7999 4.7001 35.6999C3.7001 35.5999 2.6001 35.4999 1.6001 35.3999C1.0001 35.2999 0.700098 34.9999 0.900098 34.3999C1.3001 32.5999 2.2001 31.1999 3.8001 30.1999C4.9001 29.4999 6.1001 29.1999 7.4001 28.9999C9.1001 28.7999 10.7001 28.8999 12.3001 29.3999C12.8001 29.4999 13.2001 29.7999 13.7001 29.9999C15.2001 30.7999 16.0001 32.0999 16.3001 33.7999C16.4001 34.3999 16.4001 34.9999 16.4001 35.5999C16.4001 37.8999 16.4001 40.2999 16.4001 42.5999C16.4001 43.7999 16.7001 44.8999 17.5001 45.8999C17.6001 46.0999 17.8001 46.2999 17.9001 46.4999C18.1001 46.8999 18.1001 47.1999 17.8001 47.4999C16.9001 48.2999 16.1001 48.9999 15.2001 49.7999C14.7001 50.1999 14.4001 50.1999 14.0001 49.7999C13.5001 49.2999 13.1001 48.7999 12.6001 48.2999C12.2001 48.0999 12.0001 47.7999 11.8001 47.4999ZM11.1001 40.0999C9.9001 40.0999 8.8001 40.1999 7.7001 40.5999C5.9001 41.3999 5.1001 43.4999 5.9001 45.2999C6.3001 45.9999 6.8001 46.3999 7.6001 46.4999C8.4001 46.5999 9.1001 46.2999 9.7001 45.7999C10.3001 45.1999 10.7001 44.4999 10.9001 43.7999C11.2001 42.4999 11.1001 41.2999 11.1001 40.0999Z" fill="white"></path><path d="M59.6 37.1001C59.6 36.3001 59.7 35.5001 59.5 34.7001C59.2 33.7001 58.4 33.1001 57.2 33.0001C55.8 33.0001 54.5 33.6001 54.1 35.2001C54 35.8001 53.7 36.0001 53.1 35.9001C52.1 35.8001 51.1 35.7001 50.1 35.6001C49.4 35.5001 49.2 35.2001 49.3 34.5001C49.8 32.4001 51 30.9001 53 30.0001C54.6 29.3001 56.3 29.1001 58 29.1001C59 29.1001 60 29.3001 61 29.7001C63.3 30.6001 64.6 32.2001 64.7 34.7001C64.7 35.4001 64.7 36.1001 64.7 36.8001C64.7 38.8001 64.7 40.9001 64.7 42.8001C64.7 44.0001 65 45.1001 65.8 46.0001C65.9 46.2001 66.1 46.4001 66.2 46.6001C66.4 47.0001 66.4 47.3001 66.1 47.6001C65.2 48.4001 64.4 49.1001 63.5 49.9001C63 50.3001 62.7 50.3001 62.3 49.9001C61.7 49.4001 61.2 48.9001 60.8 48.3001C60.7 48.1001 60.5 47.9001 60.4 47.7001C60.3 47.8001 60.2 47.9001 60.1 48.0001C60 48.1001 60 48.1001 59.9 48.2001C58.3 49.9001 56.3 50.5001 54 50.4001C53.6 50.4001 53.1 50.3001 52.7 50.2001C50.8 49.7001 49.6 48.5001 49.1 46.6001C48.8 45.3001 48.8 44.1001 49.1 42.8001C49.6 41.0001 50.8 39.6001 52.5 38.8001C53.7 38.2001 54.9 37.9001 56.2 37.8001C57.2 37.7001 58.2 37.6001 59.1 37.4001C59.1 37.2001 59.3 37.1001 59.6 37.1001ZM59.6 40.2001C58.8 40.0001 56.9 40.3001 56.1 40.7001C54.3 41.5001 53.5 43.6001 54.4 45.4001C54.8 46.1001 55.3 46.5001 56.1 46.6001C56.9 46.7001 57.6 46.4001 58.1 45.9001C58.7 45.4001 59 44.7001 59.3 44.0001C59.7 42.6001 59.6 41.4001 59.6 40.2001Z" fill="white"></path><path d="M109.5 32.9001C109.8 32.4001 110 31.9001 110.4 31.4001C111 30.4001 112 29.7001 113.2 29.4001C114.3 29.2001 115.3 29.2001 116.3 29.5001C118.1 30.1001 119.2 31.4001 119.6 33.3001C119.8 34.4001 119.9 35.6001 119.9 36.7001C119.9 40.8001 119.9 44.9001 119.9 49.0001C119.9 49.7001 119.7 49.9001 119 49.9001C117.9 49.9001 116.9 49.9001 115.8 49.9001C115 49.9001 114.8 49.7001 114.8 48.9001C114.8 45.3001 114.8 41.7001 114.8 38.1001C114.8 37.3001 114.7 36.6001 114.6 35.8001C114.6 35.6001 114.5 35.4001 114.4 35.2001C113.9 33.7001 112.2 33.5001 111.2 34.2001C110.8 34.5001 110.4 34.9001 110.2 35.4001C109.8 36.2001 109.7 37.1001 109.7 38.0001C109.7 38.4001 109.7 38.9001 109.7 39.3001C109.7 42.5001 109.7 45.7001 109.7 48.9001C109.7 49.6001 109.5 49.8001 108.8 49.8001C107.7 49.8001 106.7 49.8001 105.6 49.8001C105 49.8001 104.6 49.6001 104.6 48.8001C104.6 42.9001 104.6 37.0001 104.6 31.1001C104.6 30.8001 104.6 30.6001 104.6 30.3001C104.6 29.7001 104.8 29.4001 105.5 29.4001C106.5 29.4001 107.6 29.4001 108.6 29.4001C109.2 29.4001 109.4 29.6001 109.4 30.2001C109.4 30.9001 109.4 31.6001 109.4 32.3001C109.4 32.4001 109.4 32.6001 109.4 32.7001C109.4 32.9001 109.4 32.9001 109.5 32.9001Z" fill="white"></path><path d="M101.8 39.8997C101.8 41.6997 101.5 43.4997 100.7 45.1997C100.1 46.5997 99.2003 47.7997 98.0003 48.7997C95.0003 51.0997 89.8003 50.9997 87.0003 47.1997C86.0003 45.7997 85.4003 44.1997 85.2003 42.5997C84.8003 40.0997 84.9003 37.5997 85.6003 35.1997C86.0003 34.0997 86.5003 32.9997 87.2003 32.0997C88.9003 29.9997 91.2003 29.0997 94.0003 29.2997C97.1003 29.5997 99.3003 31.2997 100.5 34.0997C101.4 35.7997 101.8 37.6997 101.8 39.8997ZM96.4003 39.4997C96.3003 38.7997 96.3003 37.7997 96.2003 36.7997C96.1003 36.0997 95.9003 35.3997 95.7003 34.6997C95.5003 33.9997 94.9003 33.3997 94.2003 33.2997C92.9003 32.9997 91.9003 33.3997 91.3003 34.5997C90.9003 35.2997 90.7003 36.0997 90.7003 36.8997C90.5003 38.9997 90.5003 40.9997 90.8003 43.0997C90.9003 43.9997 91.1003 44.7997 91.6003 45.4997C92.1003 46.2997 92.9003 46.6997 93.9003 46.4997C94.6003 46.3997 95.1003 45.9997 95.5003 45.4997C95.9003 44.8997 96.1003 44.2997 96.2003 43.5997C96.3003 42.2997 96.3003 41.0997 96.4003 39.4997Z" fill="white"></path><path d="M76.2999 33.7001C75.1999 33.7001 74.1999 33.7001 73.0999 33.7001C72.0999 33.7001 71.0999 33.7001 70.0999 33.7001C69.3999 33.7001 69.1999 33.5001 69.1999 32.8001C69.1999 32.1001 69.1999 31.4001 69.1999 30.6001C69.1999 29.7001 69.2999 29.6001 70.1999 29.6001C71.9999 29.6001 73.7999 29.6001 75.4999 29.6001C77.4999 29.6001 79.5999 29.6001 81.4999 29.6001C81.6999 29.6001 81.8999 29.6001 81.9999 29.6001C82.3999 29.7001 82.5999 29.8001 82.5999 30.2001C82.5999 31.0001 82.5999 31.8001 82.5999 32.6001C82.5999 32.8001 82.4999 33.0001 82.3999 33.2001C82.2999 33.5001 82.0999 33.7001 81.8999 34.0001C79.8999 36.9001 77.7999 39.8001 75.7999 42.7001C75.6999 42.8001 75.5999 43.0001 75.3999 43.2001C75.7999 43.2001 75.9999 43.2001 76.1999 43.2001C78.0999 43.2001 79.8999 43.6001 81.5999 44.3001C82.5999 44.7001 82.9999 45.3001 82.8999 46.4001C82.7999 47.0001 82.8999 47.7001 82.8999 48.3001C82.8999 48.4001 82.8999 48.5001 82.8999 48.7001C82.7999 49.2001 82.3999 49.4001 81.9999 49.2001C81.8999 49.2001 81.7999 49.1001 81.6999 49.1001C77.5999 47.3001 73.5999 47.3001 69.4999 49.1001C69.3999 49.1001 69.3999 49.2001 69.2999 49.2001C68.8999 49.4001 68.4999 49.2001 68.3999 48.8001C68.3999 48.7001 68.3999 48.5001 68.3999 48.4001C68.3999 47.5001 68.3999 46.6001 68.3999 45.7001C68.3999 45.0001 68.5999 44.3001 68.9999 43.7001C71.2999 40.5001 73.4999 37.3001 75.6999 34.1001C76.0999 34.1001 76.1999 33.9001 76.2999 33.7001Z" fill="white"></path><path d="M48.6 65.0002C47.2 64.9002 45.8 64.9002 44.5 64.8002C40.3 64.4002 36.3 63.5002 32.3 62.1002C28.8 60.8002 25.6 59.1002 22.5 57.1002C20.8 55.9002 19.1 54.6002 17.6 53.3002C17.5 53.2002 17.3 53.1002 17.2 52.9002C17.1 52.8002 17.1 52.5002 17.2 52.4002C17.3 52.3002 17.5 52.2002 17.6 52.2002C17.8 52.2002 18 52.3002 18.2 52.5002C19.5 53.2002 20.8 53.9002 22.1 54.5002C26.3 56.5002 30.6 58.0002 35.1 59.0002C36.9 59.4002 38.7 59.7002 40.6 60.0002C41.7 60.2002 42.8 60.3002 43.9 60.4002C45.2 60.5002 46.5 60.5002 47.8 60.6002C49.6 60.7002 51.4 60.6002 53.2 60.5002C54.9 60.4002 56.5 60.2002 58.2 60.0002C61.2 59.6002 64.1 58.9002 66.9 58.1002C69 57.5002 71.1 56.7002 73.1 55.9002C73.2 55.8002 73.4 55.8002 73.5 55.8002C74 55.7002 74.4 55.8002 74.6 56.2002C74.8 56.5002 74.7 56.9002 74.3 57.2002C74 57.4002 73.7 57.6002 73.4 57.9002C70.3 60.0002 67 61.5002 63.5 62.7002C60.8 63.6002 58.1 64.2002 55.3 64.7002C54.2 64.9002 53.1 65.0002 52 65.1002C50.9 64.9002 49.7 65.0002 48.6 65.0002Z" fill="#FD9901"></path><path d="M76 50.7998C77.1 50.7998 78.1 50.8998 79.1 51.1998C80.2 51.4998 80.4 51.6998 80.4 52.7998C80.4 54.3998 80 55.8998 79.4 57.3998C78.8 59.0998 77.8 60.5998 76.5 61.8998C76.4 61.9998 76.2 62.1998 76.1 62.1998C76 62.2998 75.8 62.2998 75.7 62.1998C75.5 62.0998 75.6 61.8998 75.7 61.6998C75.9 61.1998 76.1 60.6998 76.3 60.2998C76.9 58.7998 77.4 57.3998 77.7 55.7998C77.8 55.3998 77.8 54.8998 77.8 54.3998C77.8 53.9998 77.5 53.5998 77.1 53.4998C76.7 53.3998 76.4 53.1998 76 53.1998C75.1 53.0998 74.3 53.0998 73.4 53.0998C72.4 53.1998 71.4 53.1998 70.5 53.2998C70.1 53.2998 69.7 53.3998 69.4 53.3998C69.3 53.3998 69.1 53.2998 69 53.2998C69 53.1998 69 52.9998 69.1 52.8998C69.2 52.6998 69.5 52.5998 69.7 52.4998C70.9 51.7998 72.2 51.2998 73.6 51.0998C74.2 50.9998 75.1 50.9998 76 50.7998Z" fill="#FD9901"></path></g><defs><clipPath id="clip0_2129_40"><rect width="124" height="65" fill="white"></rect></clipPath></defs></svg>